<?xml version="1.0" encoding="UTF-8"?>
<svg id="Layer_1" xmlns="http://www.w3.org/2000/svg" version="1.1" viewBox="0 0 1254 1254">
  <!-- Generator: Adobe Illustrator 29.7.1, SVG Export Plug-In . SVG Version: 2.1.1 Build 8)  -->
  <defs>
    <style>
      .st0 {
        fill: #fff;
      }
    </style>
  </defs>
  <path class="st0" d="M-764.55,424c2.33.56,1.65-.45,2.29-1.27,21.89-27.84,37.94-52.65,64.7-77.25,158.76-145.98,409.9-108,523.43,72.6,8.34,13.27,27.55,46.96,29.5,61.5,4.52,33.74-38.33,47.74-55.11,20.11-3.24-5.35-4.82-11.94-7.63-17.37-103.12-199.89-364.44-221.17-499.58-41.22-3.01,4-6.49,8.36-8.6,12.9h85.5c4.28,0,14.16,7.52,16.91,11.09,14.87,19.27,1.95,46.91-21.88,48.95-51.41,4.4-109.01-3.4-161.07,0-15.36-1.61-26.18-13.16-27.5-28.5,3-52.11-3.86-108.46,0-160.08,2.23-29.83,40.45-39.75,55.48-13.39.64,1.12,3.56,7.88,3.56,8.44v103.5Z"/>
  <path class="st0" d="M-232.55,761h-86.5c-1.48,0-7.44-2.88-9.16-3.84-22.81-12.66-17.38-47.31,7.61-53.72l167.6-.48c13.82,1.71,24.01,12.74,25.5,26.5v163.08c-4.9,33.7-52.55,35.4-58.08,1l.05-100.03-1.99-.51c-5.84,10.63-13.22,21.09-20.62,30.89-153.75,203.59-460.96,173.52-578.91-48.87-4.41-8.32-17.01-33.4-17.42-41.66-1.52-30.71,41.04-44.05,57.32-13.23,7.44,14.08,12.53,27.79,21.21,41.79,108.73,175.22,363.42,183.74,483.23,15.4,3.61-5.07,7.5-10.71,10.19-16.31Z"/>
</svg>