<?xml version="1.0" encoding="UTF-8"?>
<svg id="Layer_1" data-name="Layer 1" xmlns="http://www.w3.org/2000/svg" viewBox="0 0 1010.17 811.86">
  <defs>
    <style>
      .cls-1 {
        fill: #82858f;
      }

      .cls-2 {
        fill: #838791;
      }

      .cls-3 {
        fill: #f9f9f9;
      }

      .cls-4 {
        fill: #fdfdfd;
      }

      .cls-5 {
        fill: #848791;
      }
    </style>
  </defs>
  <path class="cls-5" d="M523.41,741.54l38.88-23.62c70.2-37.08,162.99-53.51,241.89-56.45,25.08-.94,56.28,2.96,80.16.15,1.68-.2,5.75-.76,5.75-2.58v-343.35c0-.95,2.48-8.77,3.25-10.09.82-1.41,20.39-20.92,21.78-21.56,5.8-2.69,11.63-.06,11.72,6.57l-.02,365.15c-1.17,13.61-7.06,26.99-18.9,34.43-23.11,14.52-93.15,6.55-123.64,8.03-73.52,3.56-153.15,21.92-217.55,57.46-2.45,1.35-7.38,3.3-8.3,5.84,39.8-11.86,80.97-19.95,122.5-23.31,91.33-7.39,184.91-1.31,276.7-3.31,10.77-1.19,17.23-12.23,17.53-22.47-1.17-161.68,2.01-323.79-1.6-485.21l1.4-3.26c3.94-2.2,20.94-22.79,22.64-22.53,6.34.97,12.4,19.62,12.57,25.84v490.15c-2.98,30.18-25.82,51.79-55.85,54.17-50.26,3.98-103.15-1.85-153.33-1.8-76.74.08-158.82,2.58-232.2,26.28-9.75,3.15-18.74,8.76-28.7,11.3-57.23,14.54-83.85-10.1-135-21.7-61.86-14.03-134.15-15.94-197.59-15.88-48.31.04-107.2,6.49-154.73,1.53-28.78-3-49.95-25.4-52.77-53.9L.05,225.68c1.22-19.62,24.85-42.49,44.18-42.49h39.17v-44.17c0-1.97,3.56-12.68,4.69-15.32,5.29-12.36,17.85-21.96,31.29-23.71,26.21-3.42,77.14-1.44,104.93-.21,17.22.76,37.49,3.05,54.7,5.31,81.17,10.63,164.64,38.46,226.68,92.98,26.33-24.9,59.17-43.9,92.79-57.33,9.48-3.79,28.71-14.4,35.68-4.11,8.4,12.4-19.04,26.53-24,37.46-31.2,14.34-62.63,29.92-86.73,54.94v512.52Z"/>
  <path class="cls-1" d="M814.73,1.99c46.37-5.84,102.22,3.43,149.6-.53,29.96,1.66,20.03,44.17,20.7,65.97.99,32.04,6.77,75.64,3.41,106.61-.45,4.14-2.44,10.35-4.18,14.15-7.28,15.9-52.54,55.38-67.54,70.8-36.63,37.64-72.99,75.9-110.8,112.54-14.57,10.51-30.42,7.71-44.2-2.45-38.72-38.5-76.96-77.5-115.75-115.92-20.94-20.73-46.53-35.12-24.21-69.12,44.46-46.11,89.94-91.17,135.05-136.63,16.74-16.87,32.18-42.17,57.93-45.41Z"/>
  <path class="cls-4" d="M488.4,741.54c-1.9.31-3.23-.06-4.95-.86-8.91-4.15-22.94-16.03-33.34-21.67-70.05-37.98-161.64-54.52-240.81-57.54-25.75-.98-59.22,3.27-83.48.15-2.84-.37-5.06-.63-6.6-3.4l1.95-521.83c4.45-2.78,67.58-1.96,78.14-1.61,100.48,3.34,210.37,23.83,286.57,93.45.28,19.71,4.3,39.52.78,59.06.51,131.87,2.3,263.41,1.74,395.11-.09,19.99-1.74,39.21,0,59.14Z"/>
  <path class="cls-4" d="M83.4,219.86v440.85c0,9.81,12.08,26.09,20.78,30.89,22.66,12.52,93.71,5.15,123.38,6.63,15.67.78,34.08,3.14,49.78,5.22,61.68,8.16,120.35,25.79,174.4,56.45.38,3.09-3.39,1.32-5.07.91-11.5-2.79-22.95-7.46-34.9-10.12-115.77-25.73-239.48-12.25-357.57-15.78-8.78-1.06-15.34-6.86-18.35-14.99l-.86-485.98c-1.51-4.54,5.43-14.09,9.25-14.09h39.17Z"/>
  <path class="cls-4" d="M950.09,36.52c1.15,34.16.93,68.38,1.6,102.57.19,9.83,4.5,23.76.48,33.67l-162.57,166.58-3.69,1.72-135.7-135.15c56.07-56.23,109.88-114.77,167.39-169.4h132.5Z"/>
  <path class="cls-2" d="M879.77,65.23c14.85-.81,31.56,9.15,39,21.78,23.24,39.45-24.38,83.78-61.87,56.87-33.07-23.73-17.6-76.45,22.87-78.65Z"/>
  <path class="cls-3" d="M879.66,98.45c14.64-2.63,17.42,19.98,2.77,21.42-13.18,1.29-16.66-18.92-2.77-21.42Z"/>
</svg>