<?xml version="1.0" encoding="UTF-8"?>
<svg id="Layer_1" data-name="Layer 1" xmlns="http://www.w3.org/2000/svg" viewBox="0 0 1039.4 1040.96">
  <defs>
    <style>
      .cls-1 {
        fill: #8f95a1;
      }

      .cls-2 {
        fill: #9095a2;
      }

      .cls-3 {
        fill: #8f95a2;
      }

      .cls-4 {
        fill: #fdfdfd;
      }
    </style>
  </defs>
  <path class="cls-2" d="M93.12,3c93.3,4.83,196.43-8.23,288.62-.48,50.5,4.24,91,47.25,95.46,97.32,7.74,86.8-5.78,184.57.1,272.52-4.45,46.96-36.75,86.59-83.38,96.42-93.63,0-197.06,9.12-290.26,2.76-53.01-3.62-94.02-40.96-100.92-93.71,6.04-91.26-8.27-193.34.21-283.34C7.3,48.2,47.25,8.82,93.12,3Z"/>
  <path class="cls-1" d="M98.72,568.4c90.42,4.42,189.91-7.83,279.31-.53,51.89,4.24,94.51,45.02,99.17,97.32,7.79,87.39-5.82,185.82.1,274.37-5.2,53.6-45.06,94.65-99.26,99.07-88.63,7.24-186.62-5.42-276.23.1-52.21-3.85-92.44-41.95-99.07-93.71,6.44-91.43-8.81-195.21.2-285.2,4.83-48.3,48.38-87.1,95.79-91.42Z"/>
  <path class="cls-3" d="M660.37,568.4c90.2,3.99,188.12-7.25,277.46-.53,51.32,3.86,90.82,39,99.17,89.9-5.51,93.27,7.39,195.09.08,287.36-3.5,44.18-38.63,81.59-81.17,91.22-93.95-.66-197.18,8.78-290.63,2.4-50.52-3.45-96.14-41.86-100.92-93.71-8.38-91.06,6.05-194.72.17-287.09,7.64-47.78,47.62-85.17,95.82-89.54Z"/>
  <path class="cls-2" d="M656.65,3.03c92.68,4.73,195.16-8.21,286.74-.52,47.94,4.03,87.01,42.64,93.62,89.89-5.47,92.67,7.34,193.83.08,285.51-3.94,49.76-48.06,90.27-97.41,93.51-89.28-4.25-183.88,5.75-272.53.11-53.81-3.42-93.78-38.42-102.78-91.85l.18-288.95c8.36-45.24,45.97-82.45,92.1-87.7Z"/>
  <path class="cls-4" d="M100.5,60.43l273.82-.45c23.03,1.62,43.43,20.18,45.52,43.45-5.64,85.73,7.25,180.56,0,265.21-2.23,26.02-21.78,43.42-47.27,45.42-85.25,6.68-179.06-5.21-265.22.01-20.13-.62-40.78-14.08-45.61-34.1-5.3-21.95-1.44-53.64-1.49-76.2-.12-48.86-.09-97.72-.01-146.58.03-18.51-2.4-38.71-.12-57.43,2.24-18.41,22.29-36.83,40.38-39.32Z"/>
  <path class="cls-4" d="M102.35,625.78l271.98-.46c24.28,3.43,43.34,20.38,45.5,45.33-5.96,85.36,7.71,181.08.01,265.21-2.38,26.03-21.76,43.21-47.28,45.4-85.24,7.31-180.73-5.66-267.05,0-47.05-5.95-47.35-42.21-47.18-80.68.26-60.89.81-122.56,1.91-183.45.72-39.86-8.86-80.85,42.11-91.35Z"/>
  <path class="cls-4" d="M664,625.78l271.99-.46c23.59,2.82,42.24,19.63,45.44,43.53-5.9,85.92,7.81,182.32.07,267.01-2.35,25.68-22.06,43.41-47.28,45.4-86.13-5.21-179.98,6.71-265.2,0-59.24-4.66-49.3-67.31-49.13-110.43.26-68.62,3.42-138.2,2.04-207.42,6.02-19.92,21.23-34.46,42.07-37.63Z"/>
  <path class="cls-4" d="M662.15,60.43l273.84-.47c24.89,2.79,43.19,20.04,45.51,45.32,7.65,83.53-5.94,178.61-.01,263.36-2.51,26.03-21.54,43.4-47.27,45.42-85.84,6.73-180.3-5.23-267.05,0-28.87-2.5-45.86-25-47.2-52.9-.17-3.45,2.19-7.23,2.01-11.12-2.83-62.31-.99-124.9-.08-187.14.59-40.74-11.89-90.83,40.26-102.47Z"/>
</svg>