<?xml version="1.0" encoding="UTF-8"?>
<svg id="Layer_1" data-name="Layer 1" xmlns="http://www.w3.org/2000/svg" viewBox="0 0 378.14 378.12">
  <defs>
    <style>
      .cls-1 {
        fill: #fefbfb;
      }

      .cls-2 {
        fill: #fdf7f8;
      }

      .cls-3 {
        fill: #e50113;
      }

      .cls-4 {
        fill: #e50012;
      }

      .cls-5 {
        fill: #fefefe;
      }
    </style>
  </defs>
  <path class="cls-5" d="M355.99,101.92l-3.63,2-121.85.14c-5.03,8.32-9.63,16.9-13.8,25.73l-2.72,1.13,2.21-2h43.6l1.2,2,1.73,1.37c-6.16,25.63-12.33,51.28-18.5,76.93l-2.23.7.89-1.86c9.54-.17,19.09-.22,28.66-.14l1.44,2-1.72-1.37,18.63-76.8c.66-2.96,3.26-3.22,5.94-3.15,10.06.39,20.11.51,30.16.37,2.84-2.65,5.84-4.67,9-6.05l-3.76,2h-25.8l-1.44-2c-3.68-4.97,6.67-6.78,10.97-6.36l21.49.65c2.88-1.12,5.73-2.55,8.53-4.29l-3.74,2h-24.83l-1.44-2c-5.61-3.71,4.6-7.02,9.01-6.29,7.78.45,15.53.61,23.26.46,2.84-1.77,5.75-3.49,8.73-5.17,77.41,147.92-60.65,314.8-220.76,268.26C17.6,336-36.39,197.67,26.57,92c75.89-127.35,260.89-121.03,329.42,9.92Z"/>
  <path class="cls-4" d="M211.99,100.92l-15.01,28.99-1.44-8.04c-4.41-8.31-18.57-8.05-24.4-1.29-14.25,16.53,15.16,37.66,26.35,47.33,2.1,0,5.43-14.42,5.54-16.94.85-.73,20.91,5.01,21.55,5.93,2.54,3.67-8.4,25.89-10.57,30.56l16.98,22.47h-27.5c-.71,0-4.6-5.55-6.14-5.84-.89-.17-13.97,4.78-17.31,5.39-54.22,9.98-77.83-32.26-30.07-64.05-12.48-12.4-13.1-28.46-7.98-44.5h70Z"/>
  <path class="cls-4" d="M355.99,101.92c-1.33,1.73-4.87,6.25-6.7,6.8-6.66,1.98-28.59-1.94-32.85,1.15-1.02.74-1.69,1.72-1.44,3.06h30c-1.11,1.61-4,5.29-5.7,5.8-7.41,2.2-26.94-2.18-32.85,1.15-.74.41-2.13,2.12-2.45,3.05h31c-1.88,2.28-5.8,7.46-8.52,7.98-5.71,1.09-32.16-1.26-34.34.15l-19.13,78.87h-31l19-79h-47c1.62-3.86,14.04-28.28,15.66-28.84l126.34-.16Z"/>
  <polygon class="cls-4" points="101.99 209.92 17.99 209.92 28.7 188.9 75.52 187.94 96.49 100.92 125.49 100.92 101.99 209.92"/>
  <path class="cls-3" d="M198.99,288.93c-.16.23,2.16,3.27,2.57,4.91s1.89,12.61,1.43,13.08c-1.47-.23-7.69.33-8.01,0-.5-.53-.07-12.4-2.66-14.08-9.15-5.92-5.97,11.88-8.43,13.97-.77.66-6.23-.24-7.9.1l7.1-36.89c8.93-.47,27.25-2.29,23.43,11.92-1.53,5.7-6.78,5.93-7.53,6.99Z"/>
  <path class="cls-3" d="M237.99,269.92c-.31,1.19-.8,6.7-1.05,6.94-.68.67-14.39-.52-14.94.06-.28.29-.42,6.66-1,7.99h13c.34.36-.63,6.8-1.62,7.07-2.15.58-12.74-.72-13.38-.05-.31.33-.6,7.52-1.01,8.99h15c-.16,1.24-1.31,7-2.5,7h-21.5l7.5-38h21.5Z"/>
  <path class="cls-3" d="M125.95,269.96c.48.47,2.23,11.17,3.05,12.96,2.89-1.45,6.39-11.74,8.19-12.79,1.71-1,7.41.26,9.8-.2-1.6,3.28-13.41,16.35-13.65,18.47-.29,2.51,8.13,18.12,6.65,19.52-1.9-.38-6.62.66-7.86-.13-.61-.39-3.96-11.89-4.15-13.86-6.66,6.55-5.75,16.87-17.98,13.99-1.39-1.2,12.74-16.98,13.01-19.52.35-3.29-6.73-17.81-6.01-18.47,1.65.3,8.43-.47,8.95.04Z"/>
  <path class="cls-3" d="M111.99,268.92c3.29,13.4-11.9,5.47-14.11,8.58-.7.99-1.32,6.99-.89,7.42.37.37,8.62-.25,10.52,0,1.45.19,1.69-.57,1.43,1.43-.13.99-.8,5.32-1,5.52-.67.66-12.4-.5-12.94.06-.31.33-.6,7.52-1.01,8.99h14c-.95,1.23-.65,7-1,7h-22l7-39h20Z"/>
  <path class="cls-3" d="M155.12,294.04c-1.78,1.95-1.67,12.41-2.13,12.88-.32.34-6.54-.24-8.01,0l6.46-36.04c29.53-8.84,32.87,23.6,3.67,23.17Z"/>
  <path class="cls-3" d="M263.96,270.97c-.29,12.02-6.41,2.21-12.9,6.52-7.02,4.66,8.19,8.87,10.17,13.68,6.11,14.87-14.71,20.19-25.24,14.73l2.01-6.99c5.42,1.52,12.27,4.74,15.82-1.64,1.06-5.67-15.17-5.85-12.79-18.8,1.74-9.44,15.69-10.01,22.92-7.5Z"/>
  <path class="cls-3" d="M292.99,270.93l-2.01,6.99c-3.01-1.47-12.63-3.53-13.07,1.51-.51,5.95,14.09,7.11,12.68,17.51-1.6,11.78-16.67,12.98-25.56,8.91.79-11.21,4.48-4.29,11.46-4.9,2.14-.19,5.33-.93,5.57-3.57.56-6.18-19.55-9.28-11.08-21.98,4.54-6.8,14.97-6.37,22-4.48Z"/>
  <path class="cls-5" d="M183.95,187.86c-.34.5-10.09,3.78-11.54,3.97-24.14,3.24-28.91-19.13-7.91-28.67l18.99,21.76c.46.75.86,2.34.45,2.95Z"/>
  <path class="cls-2" d="M197.75,277.16c5.01,4.92-4.45,10.96-9.75,8.75-.37-.34,1.7-9.59,2.12-9.86,1.15-.74,6.51.01,7.62,1.11Z"/>
  <path class="cls-1" d="M155.99,286.91c1.35-1.7,1.49-10.39,2.05-10.93,1.44-1.38,8.77-.52,9.04,4.44.35,6.39-6.09,6.96-11.1,6.49Z"/>
</svg>