<?xml version="1.0" encoding="UTF-8"?>
<svg id="Layer_1" data-name="Layer 1" xmlns="http://www.w3.org/2000/svg" viewBox="0 0 1080 1080">
  <defs>
    <style>
      .cls-1 {
        fill: #fff;
      }
    </style>
  </defs>
  <rect class="cls-1" width="1080" height="1080"/>
  <g>
    <path d="M618.78,883.41c-24.5-14.99-48.65-40.01-57.46-68.05-16.79-53.45,15.04-106.57,65.94-124.98,31.64-11.44,65.81-9.04,98.51-3.99.44-2.06-1.05-2.27-2.27-3.22-8.57-6.7-24.89-13.09-35.52-15.48-100.68-22.56-185,79.92-136.72,173.72,2.04,3.95,8.26,11.61,9.09,14.94,1.35,5.35-12.34,2.32-15.93,1.9-30.98-3.63-61.45-11.51-91.93-17.72l-2.55,2.53c-11.48,23.07-24.29,45.72-39.34,66.65-15.51,21.57-31.57,42.73-60.27,44.73-19.58,1.36-51.6,1.51-71.08,0-17.17-1.34-16.18-11.64-11.24-25.31,5.27-14.58,19.15-25.94,33.77-30.23,9.12-2.68,14.89-.1,20.16-8.83,7.63-12.63,15.39-37.12,19.34-51.67,1.09-4,4.63-15.3,4.55-18.55-.04-1.45-.27-2.6-1.5-3.51-47.45-26.76-79.35-76.69-82.54-131.45-.23-4-.63-23.19.49-25.5.59-1.22,1.77-1.73,3.03-1.97,5.18-.97,14.01-.31,19.96-1.04,67.69-8.28,137.71-53.95,164.26-117.74,1.9-4.57,3.72-16.43,8.88-16.98,38.85,12.35,77.21-2.74,115.35-9.8,114.03-21.09,238.64,10.57,297.19,117.85,51.88,95.06,22.97,224.63-64.73,287.69l-.29,1.3c8.58,13.24,5.61,30.36-10.89,34.44-103.09,2.89-206.57.37-309.81,1.28-26.94.15-13.71-30.06-3.42-42.52,30.03-36.35,92.52-32.23,134.55-26.6l2.42-1.92Z"/>
    <path d="M546.54,179.65c11.71-1.58,16.06,1.38,17.23,13.25,4.08,41.38-19.79,96.88-41.58,131.41-29.29,46.42-69.04,82.93-113.33,114.76l.38,2.3c18.43,21.91,31.47,53.27,24.04,82.03-16.02,61.97-106.86,118.11-169,113.97-11.87-.79-25.21-7.02-38.02-7.97-37.13-2.75-69.9,4.88-95.32-30.68-25.85-36.15-6.98-59.34,13.42-91.25,42.18-66,94.29-106.58,176.96-101.13,3.97.26,19.61,3.9,21.5,2.59,26.72-77.7,72.91-151.49,141.23-198.77,15.13-10.47,44.49-28.1,62.48-30.52ZM232.52,484.63c-23.65,4.05-19.46,45.53,9.52,40.52,24.79-4.29,21.01-45.74-9.52-40.52Z"/>
    <path d="M417.54,124.57c11.96-1.63,17.27,20.99,18.94,29.62,2.76,14.19,3.14,32.25,2.34,46.75-.25,4.48-1.94,21.24-3.62,24.38-2.48,4.66-17.21,16.87-21.94,22.06-36.58,40.2-62.94,89.04-82.42,139.58-3.3,3.36-9.58.49-13.52.4-4.62-.11-19.62.97-22.55-.45-1.65-.81-1.84-2.35-2.04-3.96-.81-6.28.45-19.24,1.06-26.04,5.85-65.17,35.4-137.96,76.03-188.97,7.79-9.78,36.31-41.81,47.72-43.36Z"/>
    <path d="M919.56,752.58c8.96-1.11,23.5,11.13,28.64,17.9,32.98,43.4,1.01,109.33-51.19,117.64-5.73.91-32.03,3.5-28.82-7.74,24.74-36.98,39.68-79.98,46.04-124.05.66-2.32,3.1-3.48,5.33-3.75Z"/>
  </g>
</svg>