<?xml version="1.0" encoding="UTF-8"?>
<svg id="Layer_1" xmlns="http://www.w3.org/2000/svg" version="1.1" viewBox="0 0 1254 1254">
  <!-- Generator: Adobe Illustrator 29.7.1, SVG Export Plug-In . SVG Version: 2.1.1 Build 8)  -->
  <defs>
    <style>
      .st0 {
        fill: #010101;
      }

      .st1 {
        fill: #141414;
      }

      .st2 {
        fill: #030302;
      }

      .st3 {
        fill: #f6f6f6;
      }

      .st4 {
        fill: #161617;
      }

      .st5 {
        fill: #121212;
      }

      .st6 {
        fill: #9e9f9f;
      }

      .st7 {
        fill: #090909;
      }

      .st8 {
        fill: #fafafb;
      }

      .st9 {
        fill: #fbfbfb;
      }

      .st10 {
        fill: #171717;
      }

      .st11 {
        fill: #f2f2f2;
      }

      .st12 {
        fill: #a9a8a9;
      }

      .st13 {
        fill: #383738;
      }

      .st14 {
        fill: #030303;
      }

      .st15 {
        fill: #131314;
      }

      .st16 {
        fill: #f4f4f4;
      }

      .st17 {
        fill: #575557;
      }

      .st18 {
        fill: #f7f7f7;
      }

      .st19 {
        fill: #fdfdfd;
      }

      .st20 {
        fill: #f3f3f3;
      }

      .st21 {
        fill: #030202;
      }
    </style>
  </defs>
  <rect width="1254" height="1254"/>
  <path class="st9" d="M926,384c12.1,23.2,23.8,48.3,26.9,74.6,9.1,77.1-43.4,143.1-114.8,165.4-1.3,1.5,7.3,23.1,8.8,26.6,15.1,35.7,39.7,68.5,81.7,71.3,11.6.8,25.3-4.6,33.5,6.5s2.9,23.4-5,32.5c4-2.2,13.2.3,16-1.5s7-11.5,9-14c34.1-41,112.3-26.8,101.4,34.5,31.4,9.9,49.8,31.5,53.6,64.5,5.4,47.4-26,145-47.1,188.8-26.1,54.2-73.5,77.8-126.4,38.6-17.1,6.6-33.2,6.2-50.7,1.8s-45.4-9.8-70.4-12.6-16.3-1.6-24.4-2.1l18.3,7.2c14.3,7.2,15.5,22.7,0,29.7-26.3,11.8-59.7,2.1-87.4,3.2,11.3,22.2-28.7,34.6-44.2,39.3-44,13.2-87.2,14-131.3.8-16.4-4.9-55.7-16.8-45.5-40-10.6-1.1-21,1.4-31.5,2-17.2.9-44.5,2.2-59.2-7.8-11-7.5-7.1-21.2,4-26.4l18.7-7.8c-20.9,2.6-42.8,4.1-63.4,8.1s-7.6,2.8-11.4,3.6c-17.8,3.8-33.5,3-50.3-4.3-81.1,68.4-237.7-3.3-183.1-115.8-23.2-33.4-28-73.6-12-111.3,15.5-36.4,47.3-60.3,84.7-71.3-9.5-44.1,39.5-61.1,72.7-39.9,3.5,2.3,12.4,11.8,13.6,12.3s10.4-1.6,13.6-1.5c13.7.4,25.5,7.2,35.4,16-.3-7.2,1.8-15.3,7-20.5s5.7-3.8,8-6c14.1-13,17.4-29.7,21.1-47.9-17.2-7-30.2-21.6-34.4-39.8s-1-10.4-1.9-15.1-3.6-8.7-4.5-13.5c-2.9-15.2-.2-32.1,8.3-45.1s9.6-9.1,9.4-13.4l-39.2-136.9-1.7-3.3c-71.8,4.6-133.2,43.1-174.4,100.6-4.6,6.4-17.3,29-22.1,31.9-13.7,8.4-18.9-9.9-20.4-19.7-16.2-107.9,59.3-204.8,159.1-236.6,3.5-1.1,15.3-3.3,17.1-4.7s2-7.2,2.9-9.4c16.9-41.8,80.3-30.1,77.8,14.8s-3.2,10.8-3,14.8c.4,7.3,8.3,32.7,10.9,41.2s-.6,1.8,2,1.5c2.9-20.9,12.8-40.2,20.9-59.5-47.9-20.9-.8-77.8,20.6-101.5,132.1-145.7,348.1-120.9,468.5,25.5,13.8,16.8,45.8,70.2,61.7,77.3,9.3,4.2,16.5-.2,26.4,1.6s19.3,13.2,20.7,23.3c5.5,40.5-35.2,76.8-74.7,69.3Z"/>
  <path class="st19" d="M299,659c1.6-19.7,29.2-23.8,36.5-5,5.3,13.6-4,34.1-11,46-7.9,13.6-8.8,10.9-23.3,6.2-16.4-5.3-51.3-23.5-32.8-45.3s20.2-7.3,30.5-2Z"/>
  <path class="st19" d="M1005,630c.3.5,0,2.3-.5,3-.7,1.1-13.5,4.8-16.6,6.4-8.1,4.3-14.4,11.5-18.1,19.9-3.2,7.1-3.4,15.8-6.1,21.9s-3.4,3.9-5.2.7c-2.3-4.1-3.5-15.1-6.1-20.9-3.9-8.8-10.3-15.9-19.1-19.9-3.3-1.5-16.8-4.4-17.4-5.2s0-2.6,1-3.5c1.7-1.6,13.6-4.9,17.7-7.3,20.2-12.1,15.3-26.7,22.6-43.4,4-9.1,6.6,9.4,7.5,12,4.8,14.6,9.7,24.9,24.6,31.4s15.2,4.2,15.7,4.8Z"/>
  <path class="st19" d="M304,540c2.5,3.8-10.6,6.7-13.3,8.2-7.2,4-10.9,9.8-13.7,17.3s-3.4,15-4,15.5-2.7,0-3.5-1-3-12.9-4.5-16.5c-2.2-5.2-5.9-10.2-10.7-13.3s-16.1-5.8-16.3-6.7c-1.2-3.8,6.3-3.9,9-5,8.7-3.6,14.6-10.4,17.8-19.2s3.8-17.2,5.7-17.2c4,4.3,3.8,11.3,6,17s7.8,13.2,15.1,16.9,12,3.6,12.4,4.2Z"/>
  <path class="st9" d="M1050.7,677.3c10.8,10.8-3.3,29-16.2,20.7s2.9-33.9,16.2-20.7Z"/>
  <path class="st9" d="M994.7,540.2c22.8-4.7,20.5,27.3,1.9,24.7-13.2-1.8-14.5-22.1-1.9-24.7Z"/>
  <path class="st9" d="M310.7,488.2c17.1-3.5,19.4,22.8,1.7,21.8-12.8-.7-13.7-19.4-1.7-21.8Z"/>
  <path d="M891,325c-1.9-.2-.8,2-.5,3,1.9,7.9,5.9,18.5,8.8,26.2,20.2,53.4,52.8,88.6,39.3,150.8-12.6,57.7-61.6,96.7-116.5,112,14.4,44.3,35,97.2,84,112.5,4.3,1.3,11.1,3.1,15.5,3.5,9.5.9,19.1-1.1,28.5-.5,13.4,8.2-1.9,23.1-9.6,29.5-29,24.3-77.1,25.3-111.9,15l-18.6-6.4c25.8,19.8,61.3,26.5,93,20,6.2-1.3,16.9-6.2,21.6-6.5s8.4,2.3,10.7,1.8,3.9-4.1,5.8-5.3c11.5-7.6,25.1-9.9,38.3-5.6,3.4-6.1,6-12.2,10.2-17.8,13.8-18.6,40.1-26.9,62.1-18.3,15.2,6,25.3,23.1,19.3,39.2-29.3-6.9-63.9,5.7-79.8,31.7-1.3,2.1-6.6,14.2-7.7,14.3-25.9-17.7-60.5-16.8-87-1-35.4-27.4-84.8-32.1-124.2-10.1s-12.5,9.9-17.1,11.9-10.3,1.6-13.7,3.2,1.6,2.6,2.4,3.4c2.6,2.5,9.4,10.9,12.4,10.6s12.9-10.6,15.6-12.5c34.7-23.4,78.5-21.4,112.2,2.6,1.9,1.4,9.5,8.5,10.4,8.7,1.6.4,12-7.2,15.1-8.6,20.8-9.7,51.1-8.9,69.2,6.2,3.3,2.7,10,14.3,13.8,7.8s3.7-14.7,6-20c22.1-50.8,107.5-46.1,122.7,6.7s-4,78.3-12.8,109.2-31.2,104.6-60.8,125.2c-21.3,14.9-48.8,13.5-69.8-1s-9.9-9.2-11.6-9.4-17.6,6.1-23.2,6.8c-17.1,1.9-27.5-4.1-43-7.4-49.3-10.4-147-20-195.4-12-3.2.5-8.9,1-10.8,3.7,18.2,3.4,36.9,4.4,55.3,7.2,26.2,4,56.2,9.8,80.3,20.7,3.5,1.6,9.4,3,6.8,7.2s-22.8,6.7-27,7c-24.4,1.8-51.8-5.7-75.5-.5s-.1,9.2,4.4,12.7c7.5,5.8-5.1,11.8-9.7,14-48.6,24.2-140.1,27.7-186.4-3-16.5-11,4.5-12.3,11.7-17.7,1.1-4.8-18.1-7.3-21.5-7.5-27.4-1.8-54.7,6.6-81.8-1.2-10.6-3-14.5-4.9-2.5-10.9,38-18.8,89.5-21,131-27,6-1.8-6.9-4.3-8.1-4.5-44.4-7.8-132,1.1-177.5,10s-22.4,8.7-41.6,4.1-16.2-7.3-17.7-7.3-16.9,11.8-20.2,13.8c-38.9,22.4-87.4,20.2-124.2-5.4-36-25-50.3-72.8-21.2-108.9-27.5-31-32.5-75.9-13.8-112.8,33.8-66.7,148.2-87.8,186.4-14.8,12.2-3,25.6-3,37.4,1.7,3.6,1.4,12.3,7.6,14.5,7.6s3.9-2.5,6.2-3.9c19.8-12.2,29.4-12.1,51.9-9.3,8.3,1.1,7.8-4.5,2.1-8.1s-22.3-7.5-26.3-7.7c-9.7-.5-26.1,7.1-34,12.7-13.6-7-28.1-12.2-43.6-8.9-11.8-17.2-27.4-29.8-47.2-36.9-21.8-7.9-43.6-8.2-66.4-5.1-5.3-16.6,8.6-30.9,24.5-32.8s35.8,7.6,46.4,22.4c22.7-9.5,48.7,4,55,27.5,9.3-3.8,17.1-5.5,27-2-8.3-8.4-19.9-17.7-17.8-31.3s9.1-9.5,14.3-14.7c12.5-12.4,18.1-35,20.5-52,.3-.3,6.5.6,7.2,1,2.4,1.1,13.4,43.5,17.3,48.9-6.2,22.2-2.5,45.6,14.4,62-1.9-5.4-5.1-10.3-6.7-15.8-2.9-10-3.8-20.2-2-30.5,8-46.2,56.2-49.8,64.8-95.3-.2-3.1-1.1-1-1.8.2-8.9,14.9-18.8,29.9-35.2,37.3-5.2-15.9-6.8-37-19-49l14,53.5c-.2,1.7-9.3,8.2-11.5,10.5-5.8,6-9.3,13.6-14.5,20l-22.5-73c-.7-1.2-5.6-1.5-5.5-.5l5.5,22.5c-20.4-3.4-34.6-19.2-39-39s-3.3-14.6-5-22c-3.5-15.2-.3-33.1,10-45,3.2-3.7,9.9-6.8,9.5-11.4l-44.2-153.9-1.4-1.6c-32.2,1.2-62.8,8.5-92,21.8-44.8,20.2-80.1,53.4-106.7,94.3-3.7,5.6-6.5,12.1-10.4,17.6s-.6,2.8-2.2,1.3-3.8-22.4-4-25.5c-6.5-106,77.1-198.1,179-215.5-7-33.8,45.8-46.6,55.5-14s-1.1,15-3.3,24.2l67.1,250.5c12,1.8,14.3,15.3,19.8,20.7s12.6,8.6,16.3,10.7c28.4,16.5,61,24.7,93.7,27.8l-50.2-16.2c-27.6-10.1-52.7-24.6-73.2-45.8l-29.5-109.6c15.7-90.4,109.7-168.6,200.5-173.3,104.3-5.5,204.4,132.8,226.2,223.8,13,54-11.3,80.3-58.7,100.7-38.8,16.7-85.1,22.9-127,26.5.4,1.8,2,1.9,3.5,2,51.7,5.8,155.6-12.3,189-56.1,21-27.5,16.7-56.8,8.3-88.1-22.9-86.2-91-186.6-175.7-221.3-106.7-43.6-234.8,41-263.7,146.3l-6.3,25.2c-.7-12.4-10.4-30.8-10-42.4.6-19.3,12.1-53.2,19.6-71.5,20.4-50.4,52.2-98.2,95.5-131.5-2.4-.6-5.9,1.9-8,3-26.6,13.9-48.7,35.9-65.4,60.6s-16.6,29.2-18.3,29.8c-5.7,1.9-14.4-7-15.3-12.4-2.2-14.2,11.9-33.5,20.1-44.8,32-44,78.3-78.7,129.3-97.7,131.3-48.8,262.8,2.5,345.9,109.1,15.3,19.6,40.7,66.9,64.2,72.8,11.1,2.8,18.2-3.6,27.5,1.5,3.7,2.1,7.2,6.9,7.9,11.1,4.6,29.3-28.5,60.1-57.2,56.2-3-.4-11-3-13.2-4.8-3.9-3.2-11.9-15.3-15-20-4.6-7.1-9.2-15.2-12.6-22.9Z"/>
  <path class="st19" d="M582.8,296.3c91.4-6.3,171.7,50.5,208.4,132,30.8,68.6,18.8,128.7-53.5,159.8-91.2,39.3-292.2,17-318.8-99.5-22.3-97.8,71.6-186,163.9-192.3Z"/>
  <path class="st19" d="M977,986c-11.5,14-15.8,42.1-37.4,44-21.9,2-35.4-8.9-37.5-30.6-2.6-26.5-1.1-58.2,1-85,.9-11.8,3.1-44.2,9.2-52.8,10.2-14.5,51.6-15.6,51.8,6.8.1,13.7-5.1,31.7-6,46s.1,7.7,0,11.5c9.6-9.7,19.7-43.9,38.3-32.8,9.1,5.4,10,20.4,14.4,28.6s0,1.7,2.2,1.3c3.9-23.6,6-47.7,10.3-71.2s6.8-29.2,28.2-30.8c21-1.6,44.5,5.6,44.6,30.5,0,32-19.1,90.8-30.1,122-9.8,27.7-24.7,83.5-64.2,70.2-22.7-7.6-20.3-38.6-24.8-57.7Z"/>
  <path class="st19" d="M250.8,806.3c30.9-2.2,69.9,11.8,66.1,49.1s-17,39.1-35.9,35.2c-9.8-2-14.8-13.2-24.5-14.5-17.6-2.3-24.9,14.4-8.1,23.1,13,6.7,30.2,8.5,44,15,53.8,25.2,47.3,101.7-4,125.7-30.6,14.3-74.6,7.5-96.3-19.4-12.8-15.8-15.7-43.9,3.7-55.3,25.9-15.3,32.8,19.6,57.6,14.6,8.1-1.7,11.1-11.1,6.2-17.7s-34.4-13.5-44.1-17.9c-75.7-34.2-42.7-132.2,35.5-137.9Z"/>
  <path class="st19" d="M391.1,962.1l3.9,40.3c1.2,25.3-39,32.5-50.7,13.7-7.1-11.5-10.9-62.5-12.4-78.6-1.5-16-3.6-34.1-4-50s-.7-25.4,10.5-33.5,32.9-8.8,40.3,2.7c4.6,7,5.3,32.1,6.2,41.8s-1.3,13,2.7,14.3,22.5-1.7,23.9-2.7,1.3-1.5,1.3-2.5l-4-43c-1.1-26.6,42.3-28.4,51.6-7.5s8.4,67.5,9.5,88.5c.8,15.4,5.4,49.7-1.5,62.6s-47.9,17.6-51.3-5.8l-2.7-41.3c-1.8-2.6-19.7,0-23.4,1.2Z"/>
  <path class="st19" d="M658.8,830.3c41.6-2.4,78.4,21.3,87.7,62.7s-9.9,104.5-60.5,118.5-69,9.6-63.9-21.9c.6-3.5,3.5-6,4-10,2.3-19.1-.5-45.9,0-66.1,0-4.1,2.9-17.3,0-20s-4.1-1.4-6.1-2.9c-10.2-7.8-9.3-30.7-4.1-41.2s29.4-18.2,43-19Z"/>
  <path class="st19" d="M536.8,837.3c44.4-4.8,52,29.9,61.7,64.7,6.1,21.8,17.1,65,17.5,86.6.4,19.4-15.1,26.8-32.6,25.5s-17.2-7.1-20.2-17.8-1.3-11.8-2.4-15.6-1.1-1.4-2.4-1.6c-3.4-.6-23.7-.4-25.5,1.5s-2.3,18.8-5.4,24.6c-9.8,18.3-47.3,14-49.5-9.6s11.5-78.3,17.5-101.5c6.7-25.6,10-53.3,41.3-56.7Z"/>
  <path class="st19" d="M818.8,839.3c104-10.6,97,174.9,12.7,182.7-102.1,9.4-103.1-173.5-12.7-182.7Z"/>
  <path class="st19" d="M341,391c-75.9,1.9-144.8,38.2-191.4,97.1s-8.1,12.2-12.3,17.6,0,1.8-2.3,1.3c-2.7-88.5,55.3-163.1,136.5-193,5-1.8,33.5-10.8,36.5-9.5s4,4.3,5.5,5.5c2.4,2,6.1,2.3,7,6l20.5,75Z"/>
  <path class="st19" d="M669.8,727.3c58.5-7.9,66,99.7,3.8,94.7-50.7-4.1-51.3-88.3-3.8-94.7Z"/>
  <path class="st19" d="M491.8,726.3c52.7-7.2,74.4,87.2,21.5,94.5-56.7,7.8-73.7-87.3-21.5-94.5Z"/>
  <path class="st19" d="M703.1,701.9l1.9-6.9c-4.9,1.4-5.2,6.1-10.9,2.4s-9.8-12.7-7.1-20.4c-8.4,5.5-10.3-7-10-13.5,1.7-34.5,56-45.2,71.5-13.4,15.5,31.8-12.1,64.6-45.4,51.9Z"/>
  <path class="st19" d="M424,585c-.5,2.8.7,1.6,2.2,2.2,2.7,1.1,4.3,1.1,6.8,3.2,9,7.5,6.3,23.6-6,25.5.9,2.1,5.1.5,7.3,1.2,3.4,1,3.1,6.3,2.6,9.2-1.2,7.8-12.3,14.5-19.5,15.5-47.8,6.3-59-66.2-18.2-78.2,11-3.2,25.4-.6,31.7,10s2.8,14-6.8,11.4Z"/>
  <path class="st19" d="M603.8,682.2c-5-3-4.5,6.2-6.8,9.1s-7.4,3-10.1.3-1.9-8.3-5.4-10.5c-4.2,3.7-3.6,9.9-10.8,8.8s-3.7-8.1-5.2-10.8-9.7-4.6-13-15c-11.2-35.6,34.9-57.4,63.8-39.8,17.7,10.8,25.9,35.4,9.2,50.8s-6.5,4.1-7,5c-1.6,2.8.7,7.8-4.8,10.2-7.8,3.4-8.1-7-9.9-8.1Z"/>
  <path class="st19" d="M675,1078c-23.1,3.4-33,18.5-37.5,40-5.4-12.8-6.8-26.3-20.2-33.8-4.7-2.6-10.2-3.3-14.8-5.2s-2.5-.5-2.5-2.5,12.4-3.6,15-5c7.1-3.6,13-10.6,16.1-17.9,2.7-6.2,2.8-13.8,6.8-18.7,3.2,13.7,6.6,28.4,20,35.5,5.5,3,12.8,3.4,17,7.4Z"/>
  <path class="st16" d="M621,757c-2.3-.9-.2-6.5.3-8.2,9.3-31.3,46.4-52.8,77.1-36.7,2,1,7.5,4.3,3,5.7s-13.7-3.2-19-3.7c-28.3-2.9-53.9,15.9-61.4,42.9Z"/>
  <path class="st16" d="M556,753c.4,1.9.1,2.5-1,2-15.9-31.2-54-57.3-88-35-1.4,1.3-1.9.8-1-1,33.8-30.8,76.5-2.3,90,34Z"/>
  <path class="st16" d="M738,718l6-4.5c16.3-12.9,17.7-39.7,12.2-58.3l-5.8-15.2c23.3,19.8,23.6,73-12.5,78Z"/>
  <path class="st16" d="M607,822c.5.5,0,1.4-.6,2.1-1.1,1-8.2,7-8.9,7-1.2,0-8.9-6.5-11.2-7.8-9.6-5.6-20.2-9.3-31.3-10.7,5.6-3,15-1.3,21.2-.2s29.7,8.6,30.8,9.7Z"/>
  <path class="st11" d="M736,779l-3.3-16.2c-4.4-17.7-14.9-33-30.7-42.3,4-9,15.9,4.3,19.5,8.5,4.7,5.5,14.5,22.7,14.5,29.5v20.5Z"/>
  <path class="st16" d="M344.7,275.3c.9,1,1.5,2.3,1.3,3.7-9.7-1.7-18.2-2.3-26.3,4.2-2.6,2.1-3.7,5.2-6.7,5.8-1.9-15.8,21.8-25.4,31.7-13.7Z"/>
  <path class="st6" d="M556,753c1,2.8,3.3,5.6,3,9-2.8-1.1-2.9-4.9-4-7l1-2Z"/>
  <path class="st12" d="M467,720c-.4.3-5.3,5.8-6,5-.1-2.9,3.2-4.4,5-6l1,1Z"/>
  <path d="M708.8,432.3c69.4-5.1,76.9,113.9,3.7,115.8s-69.9-110.9-3.7-115.8Z"/>
  <path d="M494.8,408.3c39-4.1,62.5,38.5,53.9,72.9-10.3,41.4-61.2,56.9-89.2,22.8s-6.9-91.3,35.3-95.7Z"/>
  <path class="st0" d="M581.7,508.2c5.5-1.6,6.5,4.5,10.4,7.3,5.7,4.1,12.6,4.5,19.2,2.3s10-9.4,13.8-5.3c8,8.5-1.1,30.3-9.6,36.6-17.3,12.7-36.3-3.1-38.4-21.6s-.4-17.7,4.6-19.2Z"/>
  <path class="st1" d="M728,555c1,1.1-4.6,12.5-5.2,12.8-.9.6-2.7,0-3.8.2-1.5-1.4,4.5-14.6,9-13Z"/>
  <path class="st10" d="M481.7,528.1c1.8-.5,2.3,0,3.3,1.4-1.7,2.1-5.2,12.1-8.5,11.5s3.3-12.4,5.1-12.9Z"/>
  <path class="st5" d="M716.5,554c6.2-1.3-3.6,12.9-5,13-4.6,0,2.4-12.4,5-13Z"/>
  <path class="st15" d="M493,530c1.2,1.3-3.5,13.8-8,12-1.2-1.3,3.5-13.8,8-12Z"/>
  <path class="st4" d="M734.5,557c6.2-1.3-1.9,12.6-5,12s4.1-11.8,5-12Z"/>
  <path class="st10" d="M471.3,527.3c.6-.6,1.6-.6,2.2-1.3,3.8.3-1.9,12.1-5,12-3.7-.8,1.4-9.5,2.8-10.7Z"/>
  <path d="M673.6,889.1c7.6-2.6,19.3,4.9,23.9,10.8,16.2,21.1,3.4,61.9-25.6,60.6l-1-3c2.1-20.4-1.3-45.3,1-65.1s0-2.7,1.7-3.3Z"/>
  <path class="st14" d="M535,938c-1.9-2,6-29.4,7.8-33.7s2-5.8,3.7-5.3,10.8,31.7,10.6,35.5-.5,3.5-1.6,3.5h-20.5Z"/>
  <path d="M834,977c-.5-.4-1.4-.2-2,.6-2.1,2.8-3.6,11.9-9.6,9.7s-5.1-7.8-7.8-11.2c-2.3,0-8.4,18.4-13.2,5.2s-.5-9.7-1.8-12.2-9.7-7.6-12.7-13.3c-17.3-33.5,14.8-73.1,51.7-61.7,26,8.1,39.2,41.1,24.3,64.4-3.3,5.2-13.6,11.2-14.3,12.7-1.6,3.4-.5,19.1-9,14.1-2.9-1.7-4.7-7.4-5.5-8Z"/>
  <path d="M285,343c1.8-11.2,16.5-13.9,23-4.5,7.7,11.2-6,31.6-13.7,40.4-13.3-3.9-37.6-13-32.8-30.9s15.7-9.5,23.5-5Z"/>
  <path class="st7" d="M195,384c-18,20.4-31.6,45.2-42.5,70l-9.5,28c5.2-37.7,25-71.9,51-99,1.4-1.3,1.9-.8,1,1Z"/>
  <path class="st17" d="M194,383c3.3-3.5,6.4-7.3,10-10.5l11-8.5c-6.3,7-13.7,12.9-20,20l-1-1Z"/>
  <path class="st13" d="M253,338c1.9,1.6-1.4,2.1-2,2.5-5.1,3-10.5,6.3-16,8.5,1.1-3,17-11.8,18-11Z"/>
  <path class="st0" d="M681.8,765.2c7.4-.9,12,6.2,11,13.1-1,6.8-12.7,22-20,20.6-9.7-1.9-27.7-22.8-14.7-30.2s12.4,3.7,14.3,3.3,4.5-6.1,9.4-6.7Z"/>
  <path class="st0" d="M492.7,764.3c6.6-.3,10.2,7.7,10.8,7.7,1,0,7-8.8,15.5-3.4,12.2,7.8-5.9,28.6-14.7,30.3-6.2,1.2-19.1-14-20.6-20s1.2-14.1,9-14.5Z"/>
  <path class="st21" d="M611.7,648.2c14.1-1.3,16.9,24-1.1,21.7s-11.2-20.6,1.1-21.7Z"/>
  <path class="st2" d="M580.7,651.3c10.2,10.7-8.4,27.5-17.1,13.6-7.1-11.4,8.2-22.9,17.1-13.6Z"/>
  <path class="st19" d="M703.7,443.2c27.7-4.6,31.9,36.5,6.7,39.7s-31.7-35.5-6.7-39.7Z"/>
  <path class="st9" d="M733.7,483.2c18.7-3.2,22.3,26,3.6,27.7-17.9,1.7-19.8-24.9-3.6-27.7Z"/>
  <path class="st3" d="M683.8,509.2c11.7-2.2,13.8,16.3,2.7,17.8s-14.1-15.6-2.7-17.8Z"/>
  <path class="st20" d="M734.7,518.2c6.5-1,10,9.7,3.6,11.6-10.2,3.1-11-10.5-3.6-11.6Z"/>
  <path class="st19" d="M489.7,419.2c21.2-3.7,33.2,21.6,16.7,34.7-16.3,13-39.6-4.9-30.3-24.3s8.3-9.5,13.6-10.4Z"/>
  <path class="st9" d="M519.7,459.2c18.2-3.1,21.7,23.4,6.5,26.5-20.9,4.3-22.6-23.8-6.5-26.5Z"/>
  <path class="st18" d="M467.3,487.3c6.5-7.1,18.3,1.9,12.7,11.3s-21.2-2-12.7-11.3Z"/>
  <path class="st20" d="M599.7,539.2c13-2.3,19.1,8.4,3.3,9.3-2.3.1-11.8-2-11-5s6.1-4,7.7-4.3Z"/>
  <path class="st9" d="M801.7,930.2c18.8-4.3,19.9,24.1,4.6,25.6s-15.1-23.2-4.6-25.6Z"/>
  <path class="st8" d="M852.7,933.3c12.4,12.4-7.9,33.4-16.2,17.7-7-13.1,6.4-27.5,16.2-17.7Z"/>
</svg>