<?xml version="1.0" encoding="UTF-8"?>
<svg id="Layer_1" xmlns="http://www.w3.org/2000/svg" version="1.1" viewBox="0 0 1080 1080">
  <!-- Generator: Adobe Illustrator 29.7.1, SVG Export Plug-In . SVG Version: 2.1.1 Build 8)  -->
  <defs>
    <style>
      .st0, .st1 {
        fill: #fff;
      }

      .st1 {
        display: none;
      }
    </style>
  </defs>
  <rect class="st1" x="0" y="0" width="1080" height="1080"/>
  <g>
    <path d="M889.7,950.4c-1.6-1.5-2.5-7.5-4-10-7.3-12.1-21.2,6.5-28,4.7s-2-13.6-.9-17.6c1.8-6.3,7.7-14.3,4.9-20.7s-14.9-12.2-18.2-15c-7.2-6.3-14.5-13.3-20.6-20.7-3.1-3.7-17.7-25.8-19.5-26.3s-2-.3-3,.3c-7.1,5.7,7.2,15.3.3,19.2-3.7,2.2-16.5,5-21.5,6.3-81.9,22.3-171.4,27.5-255.9,18.9-46.1-4.7-91.8-15-135.4-30.5-.9-.4-1.4-1.6-1.4-2.4-.5-6.9,21.5-19.9,18.6-28.4s-7.9,1-9.8,2.6c-15.6,12.6-30.9,33-36.6,52.4-5.5,18.8-3.4,51.3-22.1,61.5-10.4,5.7-43.4,11.3-55,9.7-6.5-.9-4.5-11.7-11.8-13.3-7.3-1.6-18,8.2-23.1,7.9-8.5-.5-.8-18.7-14.9-15.8-6.3,1.3-25.4,15.5-19.2-2.2,4.6-13.3,14.3-18.9,22.9-28.3s4.9-19.4,6.5-27.6c8.9-45.4,36.8-86.5,79.1-106.8,4.8-2.3,11.4-5.7,16.5-3.6,164.1,111,384,97.2,562.4,29.3,1.9-.6,3.6-.6,5.5,0s13.7,11.3,16.1,13.5c27.5,24.2,66.2,61.7,72.5,99.1,4.5,26.4-7.4,34.9-30.5,41.8-8.3,2.5-28.1,7.3-36.1,6-6.2-1-5.3-13-14.4-12.6-6.3.3-18.8,13.4-23.6,8.8Z"/>
    <path d="M99.8,587.2c22.9-1.6,48.2,2.7,68.5,13.6,37.3,20.2,51.3,67,96.1,77.2,10.3,21.7,24.2,41.6,40.8,58.9,3.9,4,13.4,10.9,15.8,14.8,3,5-6.4,6.6-9.6,8.4-16.6,9.4-32.7,21.1-44.7,36.1-1.6,1.2-3.5,1-5.4.8-13.9-1.5-40.8-14.1-53.5-21-25.5-13.8-47.5-34.5-76.5-41.2-14.9-3.4-29.1-3.9-44-8.9-17.5-5.9-32-18.2-49.9-21.9-6-1.3-11.3,0-16.8-4.7-6.4-5.4-11.4-21-12.1-29.2-4.6-53.8,44.7-79.6,91.4-82.8ZM81,628.4c-21.3,1.7-14.4,35.5,6.7,27.4s9.1-28.6-6.7-27.4Z"/>
    <path d="M581.3,584.5c31.1-1,65.7-.3,96.7,2.4,22,2,23.6,13.4,30.8,31.2,9.2,22.8,18,48.5,24.9,72.1,4.9,16.8,15.4,39.9-9.4,45.4-51.9,11.6-123.9,10.6-176.4,3-12.8-1.9-30.7-4.5-42.8-8.4-10.3-3.3-15.1-11.3-13-22.1,7.5-20.1,15.1-40.3,23.4-60.1,4.8-11.4,20.2-50,27.8-56.6,9.5-8.2,25.8-6.5,38-6.9Z"/>
    <path d="M777.9,517.1c1.2-.1,2-.2,3.2-.2,10.4.7,47.2,24.7,57.1,31.9,28.4,20.8,70.8,63.3,85,95.5s3.5,13.9-2.3,19.3c-6.5,6-20.9,14-29,18.6-29.7,16.9-64.5,30.8-97.8,38.8s-31.2,9.6-39.8-7.5c-6.8-22.4-13.2-45-20.9-67.2-5.7-16.4-14.3-33.9-19.1-50-2.5-8.4-2.4-14,3.2-21.2,17.9-14.8,35.3-42,53.4-55.2,2.2-1.6,4.2-2.6,7-2.9Z"/>
    <path d="M461.8,512.6c9-1.3,13,3.9,18.7,9.7,12.3,12.4,33.8,35.2,43.5,49,6.2,8.8,4.7,14.3,1.1,23.5-8,19.9-18.4,39.5-26.6,59.6-5.9,14.4-11.9,36.8-18.8,49.4-3.1,5.7-10.6,10.6-17.1,10.8-7.5.2-37.2-15-45.4-19.4-25.7-13.7-54.7-34.4-74.6-55.7-4.3-4.6-10.8-10.7-10.8-17.1s12.1-21.1,17.6-27.4c25.9-30.2,59.2-58.4,95.3-75.3,4.2-1.9,13.1-6.5,17.2-7.1Z"/>
    <path d="M491.4,741.6c6.2-.8,25.6,5.1,33.4,6.5,58.7,10.7,114.4,11.6,173.7,4.8,10.3-1.2,31.5-6.6,40.3-5.1,6,1,11.1,6.1,13.7,11.5,3.9,8.2,9.9,29.2,11.9,38.4,2.3,10.6-1.6,20.6-12.6,23.7-13.6,3.9-36,6.2-50.5,7.8-67.3,7.7-140.3,5.6-206.2-10.9-6.4-1.6-20.4-4.7-25.6-7.6-7.9-4.4-9.5-13.3-7.7-21.6,1.3-6.1,12.1-33.2,15.3-38.5,2.8-4.7,9-8.3,14.4-9Z"/>
    <path d="M488.3,501.8c2.3-2.8,28-12.2,33.2-14,68.1-22.6,144.4-19.8,211.1,5.9,4.7,1.8,22.9,8.6,24.8,12s.5,7.7-2.1,11.1c-12.5,16.3-33,31-45.8,47.6-15,13.8-28.8,8.8-46.7,8.1-13.4-.6-27.1-1.6-40.4-1.8-22-.5-47.2,2.8-68.3,1-8.9-.8-15.4-4.7-21.5-10.8-15.6-15.5-29.4-34.6-44.9-50.3-.9-2.2-.8-6.9.7-8.7Z"/>
    <path d="M933.3,672.5c8-2,12.9,5.3,18.8,9.5,9.4,6.6,29.8,18,36.6,25.4,5,5.5,5.1,12.5,2.1,19-3,6.5-19.3,16.6-25.9,20.8-40.1,25.4-92.1,45.6-138,57.8-14.8,3.9-35.2,12.9-46-2-2.8-3.9-14.6-40.5-15.2-45.9-2.3-20,21.8-20.1,35.3-23.8,47.9-13.2,91.3-32.8,132.3-60.8Z"/>
    <path d="M311.8,632.9c8.9-1.3,12.1,6.7,17.3,12,26.2,26.5,54.8,48.4,88,65.6,11.9,6.2,27,10.7,38,16.8,7,3.9,10.9,11.6,9.3,19.6s-11.7,31.5-15.3,38.5c-9.9,19.3-27.4,9.9-42.1,3.5-50.1-21.9-110.6-65.1-131.2-117.5-3.2-8.2-6.7-17.9,1.9-24.1,3.3-2.3,30.5-13.8,34.2-14.3Z"/>
    <path d="M976.4,755.1l4.8.2c18.3,11.6,38.4,19.8,59.4,25s21.2,3,22.1,5.7c1.5,4.4-1.6,6.4-5,8.2-21.4,11.8-89.9,14.9-114.8,12.8-2.2-.2-5.4-.7-7.3-1.6s-16.8-14-17.4-15-1.3-1.6-.4-3.2,28.9-14.5,33.4-16.9c8.6-4.7,16.9-10,25.2-15.2Z"/>
    <path class="st0" d="M81,628.4c15.8-1.3,21.1,21.8,6.7,27.4-21,8.1-28-25.7-6.7-27.4Z"/>
  </g>
</svg>