<?xml version="1.0" encoding="UTF-8"?>
<svg id="Layer_1" xmlns="http://www.w3.org/2000/svg" version="1.1" viewBox="0 0 1254 1254">
  <!-- Generator: Adobe Illustrator 29.7.1, SVG Export Plug-In . SVG Version: 2.1.1 Build 8)  -->
  <defs>
    <style>
      .st0 {
        fill: #031d73;
      }

      .st1 {
        fill: #fcfcfc;
      }

      .st2 {
        fill: #031d74;
      }

      .st3 {
        fill: #041e74;
      }

      .st4 {
        fill: #df5305;
      }

      .st5 {
        fill: #041d73;
      }

      .st6 {
        fill: #de5304;
      }

      .st7 {
        fill: #041d74;
      }

      .st8 {
        fill: #df5304;
      }

      .st9 {
        fill: #fdfcfc;
      }
    </style>
  </defs>
  <rect class="st8" width="1254" height="1254"/>
  <path class="st1" d="M754,769h10V197.5c0-9.9,12.2-20.2,21.6-21.4,42.8-5.6,106.2,25.9,139.7,51.1,37.3,27.9,89.7,81.8,92.7,130.3v411.5s33.5,0,33.5,0c3.1,0,11.6,4.5,14,7s7.5,12,7.5,15.5v53.5h38.5c6.7,0,16.3,6.6,19.5,12.5s3,6.7,3,7v60.5h35.5c9.6,0,19,12.8,20.2,21.8,2,15,1.7,52.2.2,67.7-1.4,15-12.5,24.5-27.4,24.6H87.5c-16.8-2.1-23.4-12.4-24.6-28.5s-1.8-53.8,1.3-67.8,12-17.7,19.3-17.7h36.5v-60.5c0-3.5,6-11.7,9-14s10.1-5.5,12.5-5.5h39.5v-54.5c0-3.3,4.5-11.5,7-14s11-7.5,14.5-7.5h32.5v-403.5c1.1-22.9,4.7-35.2,16.6-54.4,37.9-61.4,113.8-121,186.2-132.8,15.7-2.5,38.3-6.6,47,10.4s3.2,7.9,3.2,8.8v571.5h10V180.5c0-.6,2.3-7.1,2.8-8.2,4.1-8.4,12.6-12.6,21.6-13.4h209c8.4-.4,22.5,11.3,22.5,19.5v590.5Z"/>
  <path class="st8" d="M265,764v-396.5c1.3-25,7-34.3,21.2-53.8,38.7-53.3,103.5-100.7,170.7-106.6,1.8,7.9,1.1,16.3,1.1,24.4.6,139-1,279.5-1,418.5.4.8.4,1.6,0,2.3l-189.9,112.7-2.1-1.1Z"/>
  <path class="st7" d="M985,341c2,5.6,2.2,11.6,3,17.5v408.5h-193c0-36.2.1-72.4,0-108.5-.1-68.6.1-137.6,0-206.5l.2-2.5,19.3-11.6c1.4-1.2,3.2-1.5,5.5-1l.9-2h49.9l1.2,2,2,.7v203.1l-2,1.2c0-.8.2-2,.7-2,7.6-.5,33-1.4,39.2,0l1.2,2-2-.7v-203.1l2-1.2.9-2h51.9l1.2,2c-.8,0-2-.2-2-.7-.6-10.5-1-27.3,0-37.4-.6-2.7,0-4.4,2-4.9-23.3,2.5-46.7,2.5-70,0l-.4-2.1c28.8-17.3,57.6-34.7,86.4-52l2.1,1.1Z"/>
  <rect class="st0" x="94" y="956" width="1065" height="52"/>
  <path class="st8" d="M529,607c0-139,0-278,0-417h194c0,101.3,0,202.7,0,304l-1.3,3c-10.9,6.1-21.8,12.1-32.7,18.2l-2-1.2c-.7.2-1.7.5-2.1,0-.8-.9-.8-18.8-.4-21l1.5-2-.7,2h-88.1l-1.2-2-2-.9v-51.9l2-1.2c0-.8.2-2,.7-2,30-.6,62-.7,92.1,0,4.5-.7,7.5,0,9.2,2-.8,0-2-.2-2-.7-.6-10.7-.5-24.4,0-35.2-.7-3.8,0-6.2,2-7.2l-.7,2h-144.1l-1.2-2,1.9,1.8c-3,62.7-3.3,125.9-.9,189.6-.2,3.3-.9,6.5-2,9.6-2,4.4-10.4,8.3-15.2,10.6-2.7,2.3-5,2.7-6.8,1.4Z"/>
  <rect class="st2" x="150" y="880" width="954" height="52"/>
  <path class="st3" d="M1043,855H211v-51.5c0-.1,1.4-1.5,1.5-1.5h829c.1,0,1.5,1.4,1.5,1.5v51.5Z"/>
  <path class="st5" d="M723,494c0,91,0,182,0,273h-194c0-53.3,0-106.7,0-160l22-12c2.8,15.6,2.7,31.4,0,47l.7-2h145.1l1.2,2c-.8,0-2-.2-2-.7-.6-10.7-.5-24.4,0-35.2-.7-3.8,0-6.2,2-7.2l-.7,2h-100.1l-1.2-2c-2.5-10.4-2.5-20.6,0-31l1-2.8c16.3-9.9,32.6-19.7,49.1-29.4l7-1.8c10.5-2.6,21.5-2.6,32.2-1.3-1.8-5.1-1.5-14.1,1.8-18.7l36-20Z"/>
  <path class="st4" d="M985,341l-88,53c-26,2.2-52.2,2.7-78.3,1.3l1.3,3.9c-.3,14.1-.3,26.7,0,37.8l-25,15c0-.7-1-2.5-1-4.4-.2-80.2.2-160.4,0-240.6,57.1,2.5,112,37.7,150.5,78,12,12.6,34.8,40.2,40.5,56Z"/>
  <path class="st3" d="M457,650c0,.2,1.1,1.5,1.1,3.4,0,37.9-.2,75.8,0,113.6h-192.4c-1.1-.1-.5-2.1-.6-3l192-114Z"/>
  <polygon class="st9" points="324 394 363.5 574 403 394 446 394 383.1 641.4 343.5 642.1 279 394 324 394"/>
  <path class="st9" d="M897,394c23.3,0,46.7,0,70,0v43h-54v205h-41v-205h-52c-3,.6-1.9-1.5-2-3.5-.5-13.1.4-26.4,0-39.6,26.3,0,52.7,0,79,0Z"/>
  <path class="st9" d="M551,595c-.2-62.2-3.6-131.1,0-192.5.2-2.9.9-5.6,1-8.5h146v43h-102v54h90c2.1,6.8,0,13.3,0,19.5s1.1,3,1.1,3.5c-.1,6.7-1.1,13.3-1,20-11,0-22,0-33,0-18.4,3.2-37.3,2.3-55.9,1.1,1.4,11,1,22-1.1,32.9,0,10.3,0,20.7,0,31h102v43h-147c0-15.7,0-31.3,0-47Z"/>
  <path class="st6" d="M653,534l-57,34c0-11.3,0-22.7,0-34,19,0,38,0,57,0Z"/>
</svg>