<?xml version="1.0" encoding="UTF-8"?>
<svg id="Layer_1" xmlns="http://www.w3.org/2000/svg" version="1.1" viewBox="0 0 1254 1254">
  <!-- Generator: Adobe Illustrator 29.7.1, SVG Export Plug-In . SVG Version: 2.1.1 Build 8)  -->
  <path d="M131.5,314.2c4,1,2.9-.8,4-2.2,37.9-48.2,65.7-91.2,112-133.8C522.4-74.5,957.3-8.7,1153.9,304c14.4,23,47.7,81.3,51.1,106.5,7.8,58.4-66.4,82.7-95.4,34.8-5.6-9.3-8.3-20.7-13.2-30.1C917.8,69.1,465.3,32.2,231.3,343.9c-5.2,6.9-11.2,14.5-14.9,22.3h148.1c7.4,0,24.5,13,29.3,19.2,25.7,33.4,3.4,81.2-37.9,84.8-89,7.6-188.8-5.9-278.9,0-26.6-2.8-45.3-22.8-47.6-49.4,5.2-90.2-6.7-187.8,0-277.2,3.9-51.7,70-68.8,96.1-23.2,1.1,1.9,6.2,13.6,6.2,14.6v179.2h0Z"/>
  <path d="M1052.7,897.8h-149.8c-2.6,0-12.9-5-15.9-6.6-39.5-21.9-30.1-81.9,13.2-93l290.2-.8c23.9,3,41.6,22.1,44.2,45.9v282.4c-8.5,58.4-91,61.3-100.6,1.7v-173.2c0,0-3.4-.9-3.4-.9-10.1,18.4-22.9,36.5-35.7,53.5-266.2,352.5-798.2,300.5-1002.4-84.6-7.6-14.4-29.5-57.8-30.2-72.1-2.6-53.2,71.1-76.3,99.3-22.9,12.9,24.4,21.7,48.1,36.7,72.4,188.3,303.4,629.3,318.2,836.8,26.7,6.3-8.8,13-18.5,17.6-28.2h0Z"/>
</svg>